<svg xmlns="http://www.w3.org/2000/svg" width="1920" height="1200" viewBox="0 0 1920 1200">
  <defs>
    <linearGradient id="sky" x1="0" y1="0" x2="1" y2="1">
      <stop offset="0" stop-color="#171827"/>
      <stop offset="0.52" stop-color="#2d2942"/>
      <stop offset="1" stop-color="#54455f"/>
    </linearGradient>
    <radialGradient id="glow" cx="50%" cy="50%" r="50%">
      <stop offset="0" stop-color="#f5c2e7" stop-opacity="0.54"/>
      <stop offset="1" stop-color="#cba6f7" stop-opacity="0"/>
    </radialGradient>
    <linearGradient id="front" x1="0" y1="0" x2="1" y2="0">
      <stop offset="0" stop-color="#11111b"/>
      <stop offset="0.48" stop-color="#181825"/>
      <stop offset="1" stop-color="#242333"/>
    </linearGradient>
  </defs>
  <rect width="1920" height="1200" fill="url(#sky)"/>
  <ellipse cx="1375" cy="805" rx="470" ry="430" fill="url(#glow)"/>
  <circle cx="1375" cy="805" r="185" fill="#cba6f7" opacity="0.58"/>
  <circle cx="1328" cy="758" r="185" fill="#343047"/>
  <g fill="#f9e2af" opacity="0.72">
    <circle cx="218" cy="235" r="3"/><circle cx="438" cy="342" r="4"/><circle cx="725" cy="210" r="3"/>
    <circle cx="1010" cy="328" r="3"/><circle cx="1220" cy="190" r="4"/><circle cx="1640" cy="310" r="3"/>
    <circle cx="1785" cy="172" r="2"/><circle cx="1488" cy="455" r="3"/><circle cx="850" cy="480" r="2"/>
  </g>
  <path d="M0 835 C210 775 390 802 565 865 C770 938 970 850 1145 808 C1370 755 1600 835 1920 735 L1920 1200 L0 1200 Z" fill="#45475a" opacity="0.56"/>
  <path d="M0 948 C245 850 455 940 650 984 C870 1036 1075 923 1270 900 C1485 875 1670 930 1920 865 L1920 1200 L0 1200 Z" fill="#313244"/>
  <path d="M0 1050 C235 968 455 1032 710 1085 C985 1140 1215 1006 1465 1005 C1635 1005 1795 1045 1920 1015 L1920 1200 L0 1200 Z" fill="url(#front)"/>
  <path d="M270 1018 C380 970 485 972 605 1023" fill="none" stroke="#89b4fa" stroke-width="5" opacity="0.4"/>
  <path d="M1170 1004 C1320 950 1460 955 1605 1010" fill="none" stroke="#94e2d5" stroke-width="4" opacity="0.34"/>
</svg>
