<svg xmlns="http://www.w3.org/2000/svg" width="1920" height="1200" viewBox="0 0 1920 1200">
  <defs>
    <linearGradient id="sky" x1="0" y1="0" x2="1" y2="1">
      <stop offset="0" stop-color="#171820"/>
      <stop offset="0.55" stop-color="#282a36"/>
      <stop offset="1" stop-color="#422b46"/>
    </linearGradient>
    <radialGradient id="moon" cx="50%" cy="50%" r="50%">
      <stop offset="0" stop-color="#f8f8f2" stop-opacity="0.8"/>
      <stop offset="0.55" stop-color="#bd93f9" stop-opacity="0.48"/>
      <stop offset="1" stop-color="#ff79c6" stop-opacity="0"/>
    </radialGradient>
    <linearGradient id="ground" x1="0" y1="0" x2="1" y2="0">
      <stop offset="0" stop-color="#111218"/>
      <stop offset="0.5" stop-color="#1f2029"/>
      <stop offset="1" stop-color="#17151e"/>
    </linearGradient>
  </defs>
  <rect width="1920" height="1200" fill="url(#sky)"/>
  <circle cx="1415" cy="740" r="375" fill="url(#moon)"/>
  <circle cx="1415" cy="740" r="188" fill="#d7c1f2" opacity="0.55"/>
  <path d="M0 550 C300 470 560 600 835 515 C1110 430 1340 525 1610 455 C1735 425 1840 430 1920 450 L1920 610 C1660 570 1450 655 1195 612 C885 560 660 690 360 620 C215 585 90 585 0 610 Z" fill="#6272a4" opacity="0.12"/>
  <path d="M0 790 C260 720 470 805 680 838 C930 878 1140 760 1375 748 C1600 736 1760 790 1920 742 L1920 1200 L0 1200 Z" fill="#343746"/>
  <g fill="#1f2029">
    <path d="M1115 930 V690 H1175 V625 L1215 568 L1255 625 V690 H1310 V930 Z"/>
    <path d="M1290 930 V610 H1350 V535 L1390 465 L1430 535 V610 H1490 V930 Z"/>
    <path d="M1465 930 V700 H1520 V650 L1555 595 L1590 650 V700 H1645 V930 Z"/>
    <rect x="1205" y="735" width="365" height="195"/>
  </g>
  <g fill="#ff79c6" opacity="0.36">
    <rect x="1202" y="706" width="25" height="58"/><rect x="1377" y="630" width="26" height="65"/><rect x="1542" y="742" width="25" height="58"/>
    <rect x="1280" y="782" width="22" height="45"/><rect x="1472" y="782" width="22" height="45"/>
  </g>
  <path d="M0 925 C245 840 450 912 690 968 C950 1028 1170 930 1390 900 C1595 872 1750 925 1920 875 L1920 1200 L0 1200 Z" fill="url(#ground)"/>
  <path d="M0 1075 C270 995 505 1060 760 1100 C1035 1145 1270 1040 1510 1028 C1685 1020 1810 1050 1920 1045 L1920 1200 L0 1200 Z" fill="#0d0e13"/>
  <path d="M270 1035 C410 970 540 982 675 1032" fill="none" stroke="#ff5555" stroke-width="4" opacity="0.28"/>
</svg>
