<svg xmlns="http://www.w3.org/2000/svg" width="1920" height="1200" viewBox="0 0 1920 1200">
  <defs>
    <linearGradient id="sky" x1="0" y1="0" x2="0" y2="1">
      <stop offset="0" stop-color="#f5d7ae"/>
      <stop offset="0.58" stop-color="#d99b61"/>
      <stop offset="1" stop-color="#8d4f39"/>
    </linearGradient>
    <radialGradient id="sun" cx="50%" cy="50%" r="50%">
      <stop offset="0" stop-color="#fff1c9"/>
      <stop offset="0.68" stop-color="#efb86f"/>
      <stop offset="1" stop-color="#c56b47" stop-opacity="0"/>
    </radialGradient>
    <linearGradient id="ridge" x1="0" y1="0" x2="1" y2="0">
      <stop offset="0" stop-color="#182f43"/>
      <stop offset="0.52" stop-color="#0f355c"/>
      <stop offset="1" stop-color="#342b36"/>
    </linearGradient>
  </defs>
  <rect width="1920" height="1200" fill="url(#sky)"/>
  <circle cx="1440" cy="820" r="370" fill="url(#sun)"/>
  <circle cx="1440" cy="820" r="205" fill="#f4c47f" opacity="0.82"/>
  <path d="M0 705 C280 668 395 720 620 690 C850 658 1000 603 1235 650 C1480 698 1685 654 1920 615 L1920 785 C1640 810 1430 770 1180 800 C850 840 520 770 0 835 Z" fill="#f0be87" opacity="0.3"/>
  <path d="M0 905 C250 820 425 842 630 910 C835 978 1060 880 1280 820 C1510 756 1695 810 1920 720 L1920 1200 L0 1200 Z" fill="#7b5147" opacity="0.72"/>
  <path d="M0 990 C250 900 415 950 650 1005 C895 1062 1095 930 1325 895 C1545 862 1700 920 1920 855 L1920 1200 L0 1200 Z" fill="url(#ridge)"/>
  <path d="M0 1105 C280 1028 520 1090 770 1118 C1060 1150 1310 1035 1575 1025 C1725 1020 1840 1045 1920 1062 L1920 1200 L0 1200 Z" fill="#0c1f2c" opacity="0.92"/>
  <path d="M230 1000 C360 930 465 930 590 995" fill="none" stroke="#e8a96d" stroke-width="5" opacity="0.52"/>
  <path d="M1115 956 C1270 890 1410 885 1565 936" fill="none" stroke="#e8a96d" stroke-width="4" opacity="0.4"/>
</svg>
